<mxfile host="app.diagrams.net" modified="2022-12-07T10:31:32.586Z" agent="5.0 (Windows NT 10.0; Win64; x64) AppleWebKit/537.36 (KHTML, like Gecko) Chrome/106.0.0.0 YaBrowser/22.11.2.807 Yowser/2.5 Safari/537.36" version="20.6.0" etag="qwlbTRbY6Ooxhy3t1MrN" type="github">
  <diagram id="HF_OiDbyZWDSJgENQruM" name="Страница 1">
    <mxGraphModel dx="631" dy="619" grid="1" gridSize="10" guides="1" tooltips="1" connect="1" arrows="1" fold="1" page="1" pageScale="1" pageWidth="827" pageHeight="1169" math="0" shadow="0">
      <root>
        <mxCell id="0" />
        <mxCell id="1" parent="0" />
        <mxCell id="VYtQGKhkmyewbnfPJwM1-1" value="" style="shape=trapezoid;perimeter=trapezoidPerimeter;whiteSpace=wrap;html=1;fixedSize=1;" parent="1" vertex="1">
          <mxGeometry x="350" y="380" width="120" height="60" as="geometry" />
        </mxCell>
      </root>
    </mxGraphModel>
  </diagram>
</mxfile>
